<?xml version="1.0" encoding="UTF-8" standalone="no"?>
<!DOCTYPE svg PUBLIC "-//W3C//DTD SVG 1.1//EN"
 "http://www.w3.org/Graphics/SVG/1.1/DTD/svg11.dtd">
<!-- Generated by graphviz version 15.0.0 (20260523.1842)
 -->
<!-- Title: coddl Pages: 1 -->
<svg width="722pt" height="1624pt"
 viewBox="0.00 0.00 722.00 1624.00" xmlns="http://www.w3.org/2000/svg" xmlns:xlink="http://www.w3.org/1999/xlink">
<g id="graph0" class="graph" transform="scale(1 1) rotate(0) translate(4 1619.76)">
<title>coddl</title>
<polygon fill="white" stroke="none" points="-4,4 -4,-1619.76 718.25,-1619.76 718.25,4 -4,4"/>
<g id="clust1" class="cluster">
<title>cluster_compile</title>
<polygon fill="none" stroke="#666666" stroke-dasharray="5,2" points="55,-622.75 55,-1607.76 481,-1607.76 481,-622.75 55,-622.75"/>
<text xml:space="preserve" text-anchor="middle" x="268" y="-1591.41" font-family="Times,serif" font-size="13.00">COMPILE TIME</text>
</g>
<g id="clust2" class="cluster">
<title>cluster_relir</title>
<polygon fill="none" stroke="#2b6cb0" stroke-dasharray="5,2" points="75,-1024.75 75,-1197.01 333,-1197.01 333,-1024.75 75,-1024.75"/>
<text xml:space="preserve" text-anchor="middle" x="204" y="-1180.66" font-family="Times,serif" font-size="13.00" fill="#2b6cb0">coddl&#45;relir &#160;(Algebra A core + sugar)</text>
</g>
<g id="clust3" class="cluster">
<title>cluster_runtime</title>
<polygon fill="none" stroke="#666666" stroke-dasharray="5,2" points="8,-8 8,-595 616,-595 616,-8 8,-8"/>
<text xml:space="preserve" text-anchor="middle" x="312" y="-578.65" font-family="Times,serif" font-size="13.00">RUN TIME — libcoddl_runtime (staticlib, extern &quot;C&quot;)</text>
</g>
<!-- src -->
<g id="node1" class="node">
<title>src</title>
<polygon fill="#eeeeee" stroke="black" points="369.5,-1576.76 218.5,-1576.76 218.5,-1540.76 375.5,-1540.76 375.5,-1570.76 369.5,-1576.76"/>
<polyline fill="none" stroke="black" points="369.5,-1576.76 369.5,-1570.76"/>
<polyline fill="none" stroke="black" points="375.5,-1570.76 369.5,-1570.76"/>
<text xml:space="preserve" text-anchor="middle" x="297" y="-1554.31" font-family="Helvetica,sans-Serif" font-size="11.00">.cd / .cddb / .cdmap / .cdstore</text>
</g>
<!-- synt -->
<g id="node2" class="node">
<title>synt</title>
<path fill="none" stroke="black" d="M379.25,-1503.76C379.25,-1503.76 214.75,-1503.76 214.75,-1503.76 208.75,-1503.76 202.75,-1497.76 202.75,-1491.76 202.75,-1491.76 202.75,-1479.76 202.75,-1479.76 202.75,-1473.76 208.75,-1467.76 214.75,-1467.76 214.75,-1467.76 379.25,-1467.76 379.25,-1467.76 385.25,-1467.76 391.25,-1473.76 391.25,-1479.76 391.25,-1479.76 391.25,-1491.76 391.25,-1491.76 391.25,-1497.76 385.25,-1503.76 379.25,-1503.76"/>
<text xml:space="preserve" text-anchor="middle" x="297" y="-1488.43" font-family="Helvetica,sans-Serif" font-size="11.00">coddl&#45;syntax</text>
<text xml:space="preserve" text-anchor="middle" x="297" y="-1476.43" font-family="Helvetica,sans-Serif" font-size="11.00">lexer + parser → CST (+ AST view)</text>
</g>
<!-- src&#45;&gt;synt -->
<g id="edge2" class="edge">
<title>src&#45;&gt;synt</title>
<path fill="none" stroke="black" d="M297,-1540.57C297,-1532.98 297,-1523.86 297,-1515.3"/>
<polygon fill="black" stroke="black" points="300.5,-1515.3 297,-1505.3 293.5,-1515.3 300.5,-1515.3"/>
</g>
<!-- typ -->
<g id="node3" class="node">
<title>typ</title>
<path fill="none" stroke="black" d="M374.38,-1430.76C374.38,-1430.76 219.62,-1430.76 219.62,-1430.76 213.62,-1430.76 207.62,-1424.76 207.62,-1418.76 207.62,-1418.76 207.62,-1398.76 207.62,-1398.76 207.62,-1392.76 213.62,-1386.76 219.62,-1386.76 219.62,-1386.76 374.38,-1386.76 374.38,-1386.76 380.38,-1386.76 386.38,-1392.76 386.38,-1398.76 386.38,-1398.76 386.38,-1418.76 386.38,-1418.76 386.38,-1424.76 380.38,-1430.76 374.38,-1430.76"/>
<text xml:space="preserve" text-anchor="middle" x="297" y="-1416.31" font-family="Helvetica,sans-Serif" font-size="11.00">coddl&#45;types</text>
<text xml:space="preserve" text-anchor="middle" x="297" y="-1404.31" font-family="Helvetica,sans-Serif" font-size="11.00">typecheck: headings, possreps,</text>
<text xml:space="preserve" text-anchor="middle" x="297" y="-1392.31" font-family="Helvetica,sans-Serif" font-size="11.00">no&#45;nulls / no&#45;dups, candidate keys</text>
</g>
<!-- synt&#45;&gt;typ -->
<g id="edge3" class="edge">
<title>synt&#45;&gt;typ</title>
<path fill="none" stroke="black" d="M297,-1467.36C297,-1459.92 297,-1450.99 297,-1442.4"/>
<polygon fill="black" stroke="black" points="300.5,-1442.59 297,-1432.59 293.5,-1442.59 300.5,-1442.59"/>
</g>
<!-- plan -->
<g id="node4" class="node">
<title>plan</title>
<path fill="none" stroke="black" d="M380.38,-1349.76C380.38,-1349.76 213.62,-1349.76 213.62,-1349.76 207.62,-1349.76 201.62,-1343.76 201.62,-1337.76 201.62,-1337.76 201.62,-1317.76 201.62,-1317.76 201.62,-1311.76 207.62,-1305.76 213.62,-1305.76 213.62,-1305.76 380.38,-1305.76 380.38,-1305.76 386.38,-1305.76 392.38,-1311.76 392.38,-1317.76 392.38,-1317.76 392.38,-1337.76 392.38,-1337.76 392.38,-1343.76 386.38,-1349.76 380.38,-1349.76"/>
<text xml:space="preserve" text-anchor="middle" x="297" y="-1335.31" font-family="Helvetica,sans-Serif" font-size="11.00">coddl&#45;plan</text>
<text xml:space="preserve" text-anchor="middle" x="297" y="-1323.31" font-family="Helvetica,sans-Serif" font-size="11.00">project model, public&#45;relvar bindings,</text>
<text xml:space="preserve" text-anchor="middle" x="297" y="-1311.31" font-family="Helvetica,sans-Serif" font-size="11.00">backend selection</text>
</g>
<!-- typ&#45;&gt;plan -->
<g id="edge4" class="edge">
<title>typ&#45;&gt;plan</title>
<path fill="none" stroke="black" d="M297,-1386.59C297,-1378.79 297,-1369.78 297,-1361.22"/>
<polygon fill="black" stroke="black" points="300.5,-1361.5 297,-1351.5 293.5,-1361.5 300.5,-1361.5"/>
</g>
<!-- lower -->
<g id="node5" class="node">
<title>lower</title>
<polygon fill="#fff3cd" stroke="black" points="353.94,-1250.76 325.47,-1268.76 268.53,-1268.76 240.06,-1250.76 268.53,-1232.76 325.47,-1232.76 353.94,-1250.76"/>
<text xml:space="preserve" text-anchor="middle" x="297" y="-1246.31" font-family="Helvetica,sans-Serif" font-size="11.00">lowering pass</text>
</g>
<!-- plan&#45;&gt;lower -->
<g id="edge5" class="edge">
<title>plan&#45;&gt;lower</title>
<path fill="none" stroke="black" d="M297,-1305.46C297,-1297.58 297,-1288.5 297,-1280.09"/>
<polygon fill="black" stroke="black" points="300.5,-1280.33 297,-1270.33 293.5,-1280.33 300.5,-1280.33"/>
</g>
<!-- relir -->
<g id="node6" class="node">
<title>relir</title>
<path fill="none" stroke="black" d="M311.5,-1166.01C311.5,-1166.01 100.5,-1166.01 100.5,-1166.01 94.5,-1166.01 88.5,-1160.01 88.5,-1154.01 88.5,-1154.01 88.5,-1134.01 88.5,-1134.01 88.5,-1128.01 94.5,-1122.01 100.5,-1122.01 100.5,-1122.01 311.5,-1122.01 311.5,-1122.01 317.5,-1122.01 323.5,-1128.01 323.5,-1134.01 323.5,-1134.01 323.5,-1154.01 323.5,-1154.01 323.5,-1160.01 317.5,-1166.01 311.5,-1166.01"/>
<text xml:space="preserve" text-anchor="middle" x="206" y="-1151.56" font-family="Helvetica,sans-Serif" font-size="11.00">RelIR tree</text>
<text xml:space="preserve" text-anchor="middle" x="206" y="-1139.56" font-family="Helvetica,sans-Serif" font-size="11.00">AND OR NOT REMOVE RENAME TCLOSE</text>
<text xml:space="preserve" text-anchor="middle" x="206" y="-1127.56" font-family="Helvetica,sans-Serif" font-size="11.00">+ heading / FD / constraint / storage&#45;origin</text>
</g>
<!-- lower&#45;&gt;relir -->
<g id="edge6" class="edge">
<title>lower&#45;&gt;relir</title>
<path fill="none" stroke="black" d="M269.33,-1232.38C262.25,-1227.21 254.95,-1221.19 249,-1214.76 238.4,-1203.3 228.99,-1188.86 221.7,-1176.09"/>
<polygon fill="black" stroke="black" points="224.93,-1174.71 217.05,-1167.63 218.8,-1178.08 224.93,-1174.71"/>
<text xml:space="preserve" text-anchor="middle" x="294" y="-1206.21" font-family="Helvetica,sans-Serif" font-size="9.00">relational expressions</text>
</g>
<!-- procir -->
<g id="node11" class="node">
<title>procir</title>
<polygon fill="#e9d8fd" stroke="black" points="472.62,-812.75 223.38,-812.75 223.38,-776.75 472.62,-776.75 472.62,-812.75"/>
<text xml:space="preserve" text-anchor="middle" x="348" y="-796.3" font-family="Helvetica,sans-Serif" font-size="11.00">coddl&#45;procir &#160;(procedural SSA)</text>
<text xml:space="preserve" text-anchor="middle" x="348" y="-784.3" font-family="Helvetica,sans-Serif" font-size="11.00">NO algebra; opaque Relation handles + plan_ids</text>
</g>
<!-- lower&#45;&gt;procir -->
<g id="edge7" class="edge">
<title>lower&#45;&gt;procir</title>
<path fill="none" stroke="black" d="M324.56,-1232.56C330.34,-1227.57 335.69,-1221.59 339,-1214.76 349.65,-1192.8 329.55,-1014.13 345,-995.25 367.53,-967.71 394.75,-998.88 423,-977.25 452.21,-954.89 453.07,-939.93 462,-904.25 470.02,-872.21 473.86,-854.59 451,-830.75 446.67,-826.23 441.74,-822.3 436.43,-818.87"/>
<polygon fill="black" stroke="black" points="438.26,-815.89 427.83,-813.99 434.8,-821.97 438.26,-815.89"/>
<text xml:space="preserve" text-anchor="middle" x="409.5" y="-1006.2" font-family="Helvetica,sans-Serif" font-size="9.00">procedural code</text>
<text xml:space="preserve" text-anchor="middle" x="409.5" y="-996.45" font-family="Helvetica,sans-Serif" font-size="9.00">(oper bodies, do&#45;loops, scalars)</text>
</g>
<!-- opt -->
<g id="node7" class="node">
<title>opt</title>
<polygon fill="#bee3f8" stroke="black" points="324.84,-1058.88 264.42,-1085.01 143.58,-1085.01 83.16,-1058.88 143.58,-1032.75 264.42,-1032.75 324.84,-1058.88"/>
<text xml:space="preserve" text-anchor="middle" x="204" y="-1060.43" font-family="Helvetica,sans-Serif" font-size="11.00">optimizer: draws THE CUT</text>
<text xml:space="preserve" text-anchor="middle" x="204" y="-1048.43" font-family="Helvetica,sans-Serif" font-size="11.00">(per&#45;subtree storage&#45;origin)</text>
</g>
<!-- relir&#45;&gt;opt -->
<g id="edge1" class="edge">
<title>relir&#45;&gt;opt</title>
<path fill="none" stroke="black" d="M205.48,-1121.6C205.3,-1113.99 205.09,-1105.2 204.89,-1096.67"/>
<polygon fill="black" stroke="black" points="208.39,-1096.78 204.65,-1086.87 201.39,-1096.95 208.39,-1096.78"/>
</g>
<!-- interp -->
<g id="node21" class="node">
<title>interp</title>
<path fill="none" stroke="black" d="M423.75,-471.75C423.75,-471.75 250.25,-471.75 250.25,-471.75 244.25,-471.75 238.25,-465.75 238.25,-459.75 238.25,-459.75 238.25,-447.75 238.25,-447.75 238.25,-441.75 244.25,-435.75 250.25,-435.75 250.25,-435.75 423.75,-435.75 423.75,-435.75 429.75,-435.75 435.75,-441.75 435.75,-447.75 435.75,-447.75 435.75,-459.75 435.75,-459.75 435.75,-465.75 429.75,-471.75 423.75,-471.75"/>
<text xml:space="preserve" text-anchor="middle" x="337" y="-455.3" font-family="Helvetica,sans-Serif" font-size="11.00">runtime RelIR interpreter</text>
<text xml:space="preserve" text-anchor="middle" x="337" y="-443.3" font-family="Helvetica,sans-Serif" font-size="11.00">(dynamic / relation&#45;polymorphic plans)</text>
</g>
<!-- relir&#45;&gt;interp -->
<g id="edge33" class="edge">
<title>relir&#45;&gt;interp</title>
<path fill="none" stroke="#2b6cb0" stroke-dasharray="5,2" d="M305.9,-1121.58C364.84,-1103.44 435.27,-1071.06 474,-1014.75 606.42,-822.2 595.18,-668.79 445,-489.75 441.3,-485.33 437.03,-481.47 432.37,-478.09"/>
<polygon fill="#2b6cb0" stroke="#2b6cb0" points="434.6,-475.35 424.27,-472.97 430.86,-481.27 434.6,-475.35"/>
<text xml:space="preserve" text-anchor="middle" x="640" y="-795.95" font-family="Helvetica,sans-Serif" font-size="9.00" fill="#2b6cb0">same RelIR, consumed at RUNTIME</text>
<text xml:space="preserve" text-anchor="middle" x="640" y="-786.2" font-family="Helvetica,sans-Serif" font-size="9.00" fill="#2b6cb0">(execlocal &amp; interp = 2 consumers)</text>
</g>
<!-- sqlemit_ct -->
<g id="node8" class="node">
<title>sqlemit_ct</title>
<polygon fill="#fed7d7" stroke="black" points="453.12,-904.25 254.88,-904.25 254.88,-868.25 453.12,-868.25 453.12,-904.25"/>
<text xml:space="preserve" text-anchor="middle" x="354" y="-888.92" font-family="Helvetica,sans-Serif" font-size="11.00">coddl&#45;sqlemit</text>
<text xml:space="preserve" text-anchor="middle" x="354" y="-876.92" font-family="Helvetica,sans-Serif" font-size="11.00">RelIR subtree → SQL string + plan_id</text>
</g>
<!-- opt&#45;&gt;sqlemit_ct -->
<g id="edge8" class="edge">
<title>opt&#45;&gt;sqlemit_ct</title>
<path fill="none" stroke="black" d="M254.68,-1032.38C277.58,-1018.7 303.39,-999.96 321,-977.25 334.95,-959.25 343.42,-934.79 348.27,-915.9"/>
<polygon fill="black" stroke="black" points="351.68,-916.71 350.56,-906.18 344.86,-915.11 351.68,-916.71"/>
<text xml:space="preserve" text-anchor="middle" x="379.53" y="-960.45" font-family="Helvetica,sans-Serif" font-size="9.00">SQL&#45;rooted</text>
<text xml:space="preserve" text-anchor="middle" x="379.53" y="-950.7" font-family="Helvetica,sans-Serif" font-size="9.00">(every leaf = relvar)</text>
</g>
<!-- execlocal -->
<g id="node9" class="node">
<title>execlocal</title>
<path fill="none" stroke="black" d="M225.12,-904.25C225.12,-904.25 74.88,-904.25 74.88,-904.25 68.88,-904.25 62.88,-898.25 62.88,-892.25 62.88,-892.25 62.88,-880.25 62.88,-880.25 62.88,-874.25 68.88,-868.25 74.88,-868.25 74.88,-868.25 225.12,-868.25 225.12,-868.25 231.12,-868.25 237.12,-874.25 237.12,-880.25 237.12,-880.25 237.12,-892.25 237.12,-892.25 237.12,-898.25 231.12,-904.25 225.12,-904.25"/>
<text xml:space="preserve" text-anchor="middle" x="150" y="-888.92" font-family="Helvetica,sans-Serif" font-size="11.00">coddl&#45;execlocal</text>
<text xml:space="preserve" text-anchor="middle" x="150" y="-876.92" font-family="Helvetica,sans-Serif" font-size="11.00">RelIR subtree → runtime&#45;lib calls</text>
</g>
<!-- opt&#45;&gt;execlocal -->
<g id="edge9" class="edge">
<title>opt&#45;&gt;execlocal</title>
<path fill="none" stroke="black" d="M147.56,-1032.35C125.57,-1019.25 102.75,-1000.98 90.5,-977.25 83.16,-963.03 84.02,-955.88 90.5,-941.25 95.51,-929.94 104.18,-919.99 113.39,-911.81"/>
<polygon fill="black" stroke="black" points="115.59,-914.53 121.1,-905.48 111.15,-909.12 115.59,-914.53"/>
<text xml:space="preserve" text-anchor="middle" x="134.75" y="-960.45" font-family="Helvetica,sans-Serif" font-size="9.00">in&#45;process&#45;rooted</text>
<text xml:space="preserve" text-anchor="middle" x="134.75" y="-950.7" font-family="Helvetica,sans-Serif" font-size="9.00">(literal / private relvar)</text>
</g>
<!-- matb -->
<g id="node10" class="node">
<title>matb</title>
<path fill="none" stroke="black" stroke-dasharray="5,2" d="M300.38,-977.25C300.38,-977.25 199.62,-977.25 199.62,-977.25 193.62,-977.25 187.62,-971.25 187.62,-965.25 187.62,-965.25 187.62,-953.25 187.62,-953.25 187.62,-947.25 193.62,-941.25 199.62,-941.25 199.62,-941.25 300.38,-941.25 300.38,-941.25 306.38,-941.25 312.38,-947.25 312.38,-953.25 312.38,-953.25 312.38,-965.25 312.38,-965.25 312.38,-971.25 306.38,-977.25 300.38,-977.25"/>
<text xml:space="preserve" text-anchor="middle" x="250" y="-960.8" font-family="Helvetica,sans-Serif" font-size="11.00">MaterializeAtBoundary</text>
<text xml:space="preserve" text-anchor="middle" x="250" y="-948.8" font-family="Helvetica,sans-Serif" font-size="11.00">(mixed&#45;origin subtree)</text>
</g>
<!-- opt&#45;&gt;matb -->
<g id="edge10" class="edge">
<title>opt&#45;&gt;matb</title>
<path fill="none" stroke="black" d="M215.97,-1032.48C222.46,-1018.71 230.48,-1001.67 237.11,-987.6"/>
<polygon fill="black" stroke="black" points="240.12,-989.43 241.22,-978.89 233.79,-986.45 240.12,-989.43"/>
<text xml:space="preserve" text-anchor="middle" x="244.85" y="-1001.33" font-family="Helvetica,sans-Serif" font-size="9.00">mixed</text>
</g>
<!-- sqlemit_ct&#45;&gt;procir -->
<g id="edge13" class="edge">
<title>sqlemit_ct&#45;&gt;procir</title>
<path fill="none" stroke="black" d="M352.84,-867.99C352.01,-855.61 350.88,-838.65 349.91,-824.27"/>
<polygon fill="black" stroke="black" points="353.42,-824.21 349.25,-814.46 346.43,-824.68 353.42,-824.21"/>
<text xml:space="preserve" text-anchor="middle" x="399.16" y="-841.7" font-family="Helvetica,sans-Serif" font-size="9.00">query(plan_id, params)</text>
<text xml:space="preserve" text-anchor="middle" x="399.16" y="-831.95" font-family="Helvetica,sans-Serif" font-size="9.00">ONE call site</text>
</g>
<!-- execlocal&#45;&gt;procir -->
<g id="edge14" class="edge">
<title>execlocal&#45;&gt;procir</title>
<path fill="none" stroke="black" d="M177.03,-867.81C195.59,-856.31 221.06,-841.46 244.75,-830.75 255.71,-825.8 267.59,-821.15 279.26,-816.95"/>
<polygon fill="black" stroke="black" points="280.17,-820.34 288.46,-813.74 277.86,-813.73 280.17,-820.34"/>
<text xml:space="preserve" text-anchor="middle" x="295.38" y="-836.83" font-family="Helvetica,sans-Serif" font-size="9.00">coddl_relation_* call seq</text>
</g>
<!-- matb&#45;&gt;sqlemit_ct -->
<g id="edge11" class="edge">
<title>matb&#45;&gt;sqlemit_ct</title>
<path fill="none" stroke="black" stroke-dasharray="5,2" d="M275.44,-940.88C288.54,-931.94 304.7,-920.91 318.96,-911.17"/>
<polygon fill="black" stroke="black" points="320.93,-914.07 327.21,-905.54 316.98,-908.29 320.93,-914.07"/>
</g>
<!-- matb&#45;&gt;execlocal -->
<g id="edge12" class="edge">
<title>matb&#45;&gt;execlocal</title>
<path fill="none" stroke="black" stroke-dasharray="5,2" d="M225.54,-940.88C212.95,-931.94 197.4,-920.91 183.69,-911.17"/>
<polygon fill="black" stroke="black" points="185.97,-908.5 175.79,-905.56 181.92,-914.2 185.97,-908.5"/>
</g>
<!-- cg -->
<g id="node12" class="node">
<title>cg</title>
<path fill="none" stroke="black" d="M436.25,-739.75C436.25,-739.75 259.75,-739.75 259.75,-739.75 253.75,-739.75 247.75,-733.75 247.75,-727.75 247.75,-727.75 247.75,-715.75 247.75,-715.75 247.75,-709.75 253.75,-703.75 259.75,-703.75 259.75,-703.75 436.25,-703.75 436.25,-703.75 442.25,-703.75 448.25,-709.75 448.25,-715.75 448.25,-715.75 448.25,-727.75 448.25,-727.75 448.25,-733.75 442.25,-739.75 436.25,-739.75"/>
<text xml:space="preserve" text-anchor="middle" x="348" y="-717.3" font-family="Helvetica,sans-Serif" font-size="11.00">coddl&#45;codegen&#45;{llvm | cranelift | wasm}</text>
</g>
<!-- procir&#45;&gt;cg -->
<g id="edge15" class="edge">
<title>procir&#45;&gt;cg</title>
<path fill="none" stroke="black" d="M348,-776.56C348,-768.98 348,-759.85 348,-751.29"/>
<polygon fill="black" stroke="black" points="351.5,-751.29 348,-741.29 344.5,-751.29 351.5,-751.29"/>
</g>
<!-- bin -->
<g id="node13" class="node">
<title>bin</title>
<polygon fill="none" stroke="black" points="405.12,-666.75 290.88,-666.75 290.88,-662.75 286.88,-662.75 286.88,-658.75 290.88,-658.75 290.88,-638.75 286.88,-638.75 286.88,-634.75 290.88,-634.75 290.88,-630.75 405.12,-630.75 405.12,-666.75"/>
<polyline fill="none" stroke="black" points="290.88,-662.75 294.88,-662.75 294.88,-658.75 290.88,-658.75"/>
<polyline fill="none" stroke="black" points="290.88,-638.75 294.88,-638.75 294.88,-634.75 290.88,-634.75"/>
<text xml:space="preserve" text-anchor="middle" x="348" y="-644.3" font-family="Helvetica,sans-Serif" font-size="11.00">native / wasm binary</text>
</g>
<!-- cg&#45;&gt;bin -->
<g id="edge16" class="edge">
<title>cg&#45;&gt;bin</title>
<path fill="none" stroke="black" d="M348,-703.56C348,-695.98 348,-686.85 348,-678.29"/>
<polygon fill="black" stroke="black" points="351.5,-678.29 348,-668.29 344.5,-678.29 351.5,-678.29"/>
</g>
<!-- prog -->
<g id="node14" class="node">
<title>prog</title>
<polygon fill="#e9d8fd" stroke="black" points="413.75,-564 282.25,-564 282.25,-528 413.75,-528 413.75,-564"/>
<text xml:space="preserve" text-anchor="middle" x="348" y="-547.55" font-family="Helvetica,sans-Serif" font-size="11.00">running program</text>
<text xml:space="preserve" text-anchor="middle" x="348" y="-535.55" font-family="Helvetica,sans-Serif" font-size="11.00">(compiled ProcIR spine)</text>
</g>
<!-- bin&#45;&gt;prog -->
<g id="edge32" class="edge">
<title>bin&#45;&gt;prog</title>
<path fill="none" stroke="black" stroke-width="2" d="M348,-630.66C348,-623.71 348,-615.22 348,-606.35"/>
<polygon fill="black" stroke="black" stroke-width="2" points="351.5,-608.03 348,-598.03 344.5,-608.03 351.5,-608.03"/>
<text xml:space="preserve" text-anchor="middle" x="379.88" y="-604.2" font-family="Helvetica,sans-Serif" font-size="9.00">loaded &amp; linked</text>
</g>
<!-- q -->
<g id="node15" class="node">
<title>q</title>
<polygon fill="#fed7d7" stroke="black" points="266.25,-417.75 107.75,-417.75 107.75,-381.75 266.25,-381.75 266.25,-417.75"/>
<text xml:space="preserve" text-anchor="middle" x="187" y="-402.43" font-family="Helvetica,sans-Serif" font-size="11.00">coddl_query(plan_id, params)</text>
<text xml:space="preserve" text-anchor="middle" x="187" y="-390.43" font-family="Helvetica,sans-Serif" font-size="11.00">→ Relation handle</text>
</g>
<!-- prog&#45;&gt;q -->
<g id="edge17" class="edge">
<title>prog&#45;&gt;q</title>
<path fill="none" stroke="red" stroke-width="2.2" d="M282.04,-536.89C247.96,-531.29 211.21,-522.56 200,-510 181.08,-488.79 179.76,-455.33 181.98,-431.02"/>
<polygon fill="red" stroke="red" stroke-width="2.2" points="185.43,-431.59 183.18,-421.24 178.48,-430.74 185.43,-431.59"/>
<text xml:space="preserve" text-anchor="middle" x="269" y="-501.45" font-family="Helvetica,sans-Serif" font-size="9.00" fill="red">① FORCE a relvar&#45;rooted relation</text>
<text xml:space="preserve" text-anchor="middle" x="269" y="-490.95" font-family="Helvetica,sans-Serif" font-size="9.00" fill="red">load · = · ship · assign · extract</text>
</g>
<!-- sqlbk -->
<g id="node17" class="node">
<title>sqlbk</title>
<polygon fill="#fed7d7" stroke="black" points="276.25,-208.25 159.75,-208.25 159.75,-172.25 276.25,-172.25 276.25,-208.25"/>
<text xml:space="preserve" text-anchor="middle" x="218" y="-191.8" font-family="Helvetica,sans-Serif" font-size="11.00">SQL backend engine</text>
<text xml:space="preserve" text-anchor="middle" x="218" y="-179.8" font-family="Helvetica,sans-Serif" font-size="11.00">Backend / Conn trait</text>
</g>
<!-- prog&#45;&gt;sqlbk -->
<g id="edge25" class="edge">
<title>prog&#45;&gt;sqlbk</title>
<path fill="none" stroke="#b7791f" d="M281.79,-539.4C189.67,-529.74 34,-505.87 34,-454.75 34,-454.75 34,-454.75 34,-271.75 34,-219.94 95.99,-201.15 148.01,-194.51"/>
<polygon fill="#b7791f" stroke="#b7791f" points="148.23,-198.01 157.77,-193.4 147.44,-191.05 148.23,-198.01"/>
<text xml:space="preserve" text-anchor="middle" x="92.5" y="-352.57" font-family="Helvetica,sans-Serif" font-size="9.00">assign to PUBLIC relvar →</text>
<text xml:space="preserve" text-anchor="middle" x="92.5" y="-341.32" font-family="Helvetica,sans-Serif" font-size="9.00">INSERT/UPDATE/DELETE;</text>
<text xml:space="preserve" text-anchor="middle" x="92.5" y="-331.57" font-family="Helvetica,sans-Serif" font-size="9.00">BEGIN/COMMIT/ROLLBACK</text>
</g>
<!-- inproc -->
<g id="node20" class="node">
<title>inproc</title>
<path fill="none" stroke="black" d="M576.38,-363.75C576.38,-363.75 415.62,-363.75 415.62,-363.75 409.62,-363.75 403.62,-357.75 403.62,-351.75 403.62,-351.75 403.62,-339.75 403.62,-339.75 403.62,-333.75 409.62,-327.75 415.62,-327.75 415.62,-327.75 576.38,-327.75 576.38,-327.75 582.38,-327.75 588.38,-333.75 588.38,-339.75 588.38,-339.75 588.38,-351.75 588.38,-351.75 588.38,-357.75 582.38,-363.75 576.38,-363.75"/>
<text xml:space="preserve" text-anchor="middle" x="496" y="-347.3" font-family="Helvetica,sans-Serif" font-size="11.00">in&#45;process runtime library</text>
<text xml:space="preserve" text-anchor="middle" x="496" y="-335.3" font-family="Helvetica,sans-Serif" font-size="11.00">coddl_relation_where/join/project…</text>
</g>
<!-- prog&#45;&gt;inproc -->
<g id="edge26" class="edge">
<title>prog&#45;&gt;inproc</title>
<path fill="none" stroke="black" d="M413.98,-530.54C425.47,-525.58 436.46,-518.92 445,-510 480.61,-472.81 491.38,-411.1 494.62,-375.15"/>
<polygon fill="black" stroke="black" points="498.08,-375.77 495.34,-365.53 491.1,-375.24 498.08,-375.77"/>
<text xml:space="preserve" text-anchor="middle" x="541.86" y="-454.95" font-family="Helvetica,sans-Serif" font-size="9.00">force of literal/</text>
<text xml:space="preserve" text-anchor="middle" x="541.86" y="-445.2" font-family="Helvetica,sans-Serif" font-size="9.00">private&#45;relvar&#45;rooted relation</text>
</g>
<!-- prog&#45;&gt;interp -->
<g id="edge28" class="edge">
<title>prog&#45;&gt;interp</title>
<path fill="none" stroke="black" d="M345.88,-527.6C344.36,-515.11 342.27,-498.01 340.5,-483.51"/>
<polygon fill="black" stroke="black" points="343.98,-483.1 339.3,-473.6 337.03,-483.95 343.98,-483.1"/>
<text xml:space="preserve" text-anchor="middle" x="392.24" y="-501.07" font-family="Helvetica,sans-Serif" font-size="9.00">runtime&#45;shaped plan</text>
<text xml:space="preserve" text-anchor="middle" x="392.24" y="-491.32" font-family="Helvetica,sans-Serif" font-size="9.00">(RelIR survives as data)</text>
</g>
<!-- psc -->
<g id="node16" class="node">
<title>psc</title>
<polygon fill="#fed7d7" stroke="black" points="289,-290.75 147,-290.75 147,-254.75 289,-254.75 289,-290.75"/>
<text xml:space="preserve" text-anchor="middle" x="218" y="-274.3" font-family="Helvetica,sans-Serif" font-size="11.00">prepared&#45;statement cache</text>
<text xml:space="preserve" text-anchor="middle" x="218" y="-262.3" font-family="Helvetica,sans-Serif" font-size="11.00">(keyed by plan_id)</text>
</g>
<!-- q&#45;&gt;psc -->
<g id="edge18" class="edge">
<title>q&#45;&gt;psc</title>
<path fill="none" stroke="red" stroke-width="2.2" d="M187.94,-381.29C189.03,-366.77 191.3,-345.66 196,-327.75 198.16,-319.5 201.29,-310.82 204.51,-302.9"/>
<polygon fill="red" stroke="red" stroke-width="2.2" points="207.63,-304.49 208.37,-293.92 201.2,-301.73 207.63,-304.49"/>
<text xml:space="preserve" text-anchor="middle" x="215.5" y="-342.45" font-family="Helvetica,sans-Serif" font-size="9.00">② lookup</text>
</g>
<!-- psc&#45;&gt;sqlbk -->
<g id="edge19" class="edge">
<title>psc&#45;&gt;sqlbk</title>
<path fill="none" stroke="red" stroke-width="2.2" d="M218,-254.28C218,-244.79 218,-232.77 218,-221.78"/>
<polygon fill="red" stroke="red" stroke-width="2.2" points="221.5,-222.01 218,-212.01 214.5,-222.01 221.5,-222.01"/>
<text xml:space="preserve" text-anchor="middle" x="270.12" y="-228.2" font-family="Helvetica,sans-Serif" font-size="9.00">③ bind params + execute</text>
</g>
<!-- sqlite -->
<g id="node18" class="node">
<title>sqlite</title>
<path fill="none" stroke="black" d="M263.12,-135.25C263.12,-135.25 172.88,-135.25 172.88,-135.25 166.88,-135.25 160.88,-129.25 160.88,-123.25 160.88,-123.25 160.88,-111.25 160.88,-111.25 160.88,-105.25 166.88,-99.25 172.88,-99.25 172.88,-99.25 263.12,-99.25 263.12,-99.25 269.12,-99.25 275.12,-105.25 275.12,-111.25 275.12,-111.25 275.12,-123.25 275.12,-123.25 275.12,-129.25 269.12,-135.25 263.12,-135.25"/>
<text xml:space="preserve" text-anchor="middle" x="218" y="-118.8" font-family="Helvetica,sans-Serif" font-size="11.00">coddl&#45;backend&#45;sqlite</text>
<text xml:space="preserve" text-anchor="middle" x="218" y="-106.8" font-family="Helvetica,sans-Serif" font-size="11.00">(rusqlite)</text>
</g>
<!-- sqlbk&#45;&gt;sqlite -->
<g id="edge20" class="edge">
<title>sqlbk&#45;&gt;sqlite</title>
<path fill="none" stroke="black" d="M218,-172.06C218,-164.48 218,-155.35 218,-146.79"/>
<polygon fill="black" stroke="black" points="221.5,-146.79 218,-136.79 214.5,-146.79 221.5,-146.79"/>
</g>
<!-- postgres -->
<g id="node19" class="node">
<title>postgres</title>
<path fill="none" stroke="black" d="M412.38,-135.25C412.38,-135.25 305.62,-135.25 305.62,-135.25 299.62,-135.25 293.62,-129.25 293.62,-123.25 293.62,-123.25 293.62,-111.25 293.62,-111.25 293.62,-105.25 299.62,-99.25 305.62,-99.25 305.62,-99.25 412.38,-99.25 412.38,-99.25 418.38,-99.25 424.38,-105.25 424.38,-111.25 424.38,-111.25 424.38,-123.25 424.38,-123.25 424.38,-129.25 418.38,-135.25 412.38,-135.25"/>
<text xml:space="preserve" text-anchor="middle" x="359" y="-118.8" font-family="Helvetica,sans-Serif" font-size="11.00">coddl&#45;backend&#45;postgres</text>
<text xml:space="preserve" text-anchor="middle" x="359" y="-106.8" font-family="Helvetica,sans-Serif" font-size="11.00">(postgres)</text>
</g>
<!-- sqlbk&#45;&gt;postgres -->
<g id="edge21" class="edge">
<title>sqlbk&#45;&gt;postgres</title>
<path fill="none" stroke="black" d="M252.49,-171.88C271.1,-162.51 294.28,-150.84 314.26,-140.78"/>
<polygon fill="black" stroke="black" points="315.67,-143.99 323.02,-136.37 312.52,-137.74 315.67,-143.99"/>
</g>
<!-- rc -->
<g id="node23" class="node">
<title>rc</title>
<path fill="none" stroke="black" d="M510,-52C510,-52 356,-52 356,-52 350,-52 344,-46 344,-40 344,-40 344,-28 344,-28 344,-22 350,-16 356,-16 356,-16 510,-16 510,-16 516,-16 522,-22 522,-28 522,-28 522,-40 522,-40 522,-46 516,-52 510,-52"/>
<text xml:space="preserve" text-anchor="middle" x="433" y="-35.55" font-family="Helvetica,sans-Serif" font-size="11.00">RC data layer + per&#45;query arenas</text>
<text xml:space="preserve" text-anchor="middle" x="433" y="-23.55" font-family="Helvetica,sans-Serif" font-size="11.00">tuple / relation values, cursors</text>
</g>
<!-- sqlite&#45;&gt;rc -->
<g id="edge22" class="edge">
<title>sqlite&#45;&gt;rc</title>
<path fill="none" stroke="red" stroke-width="2.2" d="M222.87,-99.2C226.62,-89.17 232.83,-77.09 242.5,-70 257.18,-59.24 293.5,-51.32 330.54,-45.77"/>
<polygon fill="red" stroke="red" stroke-width="2.2" points="330.93,-49.24 340.34,-44.37 329.94,-42.31 330.93,-49.24"/>
<text xml:space="preserve" text-anchor="middle" x="315.25" y="-72.7" font-family="Helvetica,sans-Serif" font-size="9.00">④ rows → tuples (zero&#45;copy cursor)</text>
</g>
<!-- postgres&#45;&gt;rc -->
<g id="edge23" class="edge">
<title>postgres&#45;&gt;rc</title>
<path fill="none" stroke="red" stroke-width="2.2" d="M374.69,-99.02C384.44,-88.32 397.17,-74.34 408.26,-62.17"/>
<polygon fill="red" stroke="red" stroke-width="2.2" points="410.69,-64.7 414.83,-54.95 405.51,-59.98 410.69,-64.7"/>
</g>
<!-- inproc&#45;&gt;rc -->
<g id="edge27" class="edge">
<title>inproc&#45;&gt;rc</title>
<path fill="none" stroke="black" d="M473.22,-327.49C458.85,-314.5 443,-295.28 443,-273.75 443,-273.75 443,-273.75 443,-116.25 443,-98.58 440.64,-78.91 438.22,-63.35"/>
<polygon fill="black" stroke="black" points="441.73,-63.14 436.63,-53.85 434.82,-64.29 441.73,-63.14"/>
</g>
<!-- interp&#45;&gt;inproc -->
<g id="edge31" class="edge">
<title>interp&#45;&gt;inproc</title>
<path fill="none" stroke="black" d="M362.9,-435.48C389.39,-417.83 430.73,-390.27 460.3,-370.55"/>
<polygon fill="black" stroke="black" points="462.21,-373.48 468.59,-365.03 458.33,-367.66 462.21,-373.48"/>
</g>
<!-- sqlemit_rt -->
<g id="node22" class="node">
<title>sqlemit_rt</title>
<polygon fill="#fed7d7" stroke="black" points="386,-363.75 244,-363.75 244,-327.75 386,-327.75 386,-363.75"/>
<text xml:space="preserve" text-anchor="middle" x="315" y="-341.3" font-family="Helvetica,sans-Serif" font-size="11.00">coddl&#45;sqlemit (as a library)</text>
</g>
<!-- interp&#45;&gt;sqlemit_rt -->
<g id="edge29" class="edge">
<title>interp&#45;&gt;sqlemit_rt</title>
<path fill="none" stroke="black" d="M333.47,-435.72C330.09,-419.44 324.93,-394.57 320.92,-375.27"/>
<polygon fill="black" stroke="black" points="324.37,-374.65 318.91,-365.57 317.51,-376.08 324.37,-374.65"/>
</g>
<!-- sqlemit_rt&#45;&gt;psc -->
<g id="edge30" class="edge">
<title>sqlemit_rt&#45;&gt;psc</title>
<path fill="none" stroke="black" d="M291.52,-327.56C279.22,-318.56 263.96,-307.39 250.54,-297.57"/>
<polygon fill="black" stroke="black" points="252.96,-295 242.82,-291.92 248.82,-300.65 252.96,-295"/>
</g>
<!-- rc&#45;&gt;prog -->
<g id="edge24" class="edge">
<title>rc&#45;&gt;prog</title>
<path fill="none" stroke="black" stroke-dasharray="5,2" d="M450.23,-52.37C463.65,-67.8 480,-91.64 480,-116.25 480,-232.5 480,-232.5 480,-232.5 480,-299.55 566.82,-267.87 597,-327.75 632.81,-398.79 616.39,-452.62 602,-471.75 580.61,-500.18 491.98,-521.04 425.39,-533.07"/>
<polygon fill="black" stroke="black" points="424.8,-529.62 415.56,-534.81 426.02,-536.51 424.8,-529.62"/>
<text xml:space="preserve" text-anchor="middle" x="615.29" y="-269.45" font-family="Helvetica,sans-Serif" font-size="9.00">⑤ Relation handle / next() rows</text>
</g>
</g>
</svg>
